<?xml version="1.0" encoding="UTF-8"?>
<svg id="Layer_2" data-name="Layer 2" xmlns="http://www.w3.org/2000/svg" viewBox="0 0 22.5 22.93">
  <defs>
    <style>
      .cls-1 {
        fill: none;
        stroke: #fff;
        stroke-linecap: round;
        stroke-linejoin: round;
        stroke-width: 2.5px;
      }
    </style>
  </defs>
  <g id="Layer_1-2" data-name="Layer 1">
    <path class="cls-1" d="M21.25,17.93v-6.93c0-.67,0-1-.08-1.31-.07-.28-.19-.54-.35-.77-.18-.27-.43-.49-.93-.93l-6-5.25c-.93-.82-1.4-1.22-1.93-1.38-.46-.14-.96-.14-1.42,0-.52.16-.99.56-1.92,1.38L2.62,7.98c-.5.44-.75.66-.93.93-.16.24-.28.5-.35.77-.08.31-.08.65-.08,1.31v6.93c0,1.16,0,1.75.19,2.21.25.61.74,1.1,1.35,1.35.46.19,1.04.19,2.21.19s1.75,0,2.21-.19c.61-.25,1.1-.74,1.35-1.35.19-.46.19-1.04.19-2.21v-1.25c0-1.38,1.12-2.5,2.5-2.5s2.5,1.12,2.5,2.5v1.25c0,1.16,0,1.75.19,2.21.25.61.74,1.1,1.35,1.35.46.19,1.04.19,2.21.19s1.75,0,2.21-.19c.61-.25,1.1-.74,1.35-1.35.19-.46.19-1.04.19-2.21Z"/>
  </g>
</svg>