<?xml version="1.0" encoding="UTF-8"?>
<svg id="Layer_2" data-name="Layer 2" xmlns="http://www.w3.org/2000/svg" viewBox="0 0 24.15 26.73">
  <defs>
    <style>
      .cls-1 {
        fill: none;
        stroke: #fff;
        stroke-linecap: round;
        stroke-linejoin: round;
        stroke-width: 2.5px;
      }
    </style>
  </defs>
  <g id="Layer_1-2" data-name="Layer 1">
    <path class="cls-1" d="M14.08,24.71l6.83-3.94c.73-.42,1.09-.63,1.36-.93.23-.26.41-.57.52-.9.12-.38.12-.8.12-1.63v-7.89c0-.84,0-1.26-.12-1.63-.11-.33-.29-.64-.52-.9-.26-.29-.63-.5-1.35-.92l-6.83-3.95c-.73-.42-1.09-.63-1.48-.71-.34-.07-.7-.07-1.04,0-.39.08-.75.29-1.48.71l-6.83,3.94c-.73.42-1.09.63-1.36.92-.23.26-.41.57-.52.9-.12.38-.12.8-.12,1.64v7.88c0,.84,0,1.26.12,1.64.11.33.29.64.52.9.26.29.63.5,1.36.93l6.83,3.94c.73.42,1.09.63,1.48.71.34.07.7.07,1.04,0,.39-.08.75-.29,1.48-.71Z"/>
    <path class="cls-1" d="M8.33,13.36c0,2.07,1.68,3.75,3.75,3.75s3.75-1.68,3.75-3.75-1.68-3.75-3.75-3.75-3.75,1.68-3.75,3.75Z"/>
  </g>
</svg>